<svg version="1.1" id="Layer_1" xmlns="http://www.w3.org/2000/svg" xmlns:xlink="http://www.w3.org/1999/xlink" x="0px" y="0px"
	 width="100%" viewBox="0 0 1024 1024" enable-background="new 0 0 1024 1024" xml:space="preserve">
<path fill="#000000" opacity="1.000000" stroke="none" 
	d="
M580.978516,813.009949 
	C586.155823,815.024353 590.395325,813.992676 592.717041,809.846252 
	C589.738281,810.760437 587.325928,810.553955 586.017090,806.264648 
	C592.777527,806.255066 597.314697,799.096680 605.140442,802.361389 
	C612.885498,805.592468 621.441406,802.939392 626.749634,798.519348 
	C631.634216,794.452209 637.785645,792.813843 642.292542,787.941895 
	C647.015869,782.836182 653.876587,779.500427 660.201172,776.140259 
	C666.850098,772.607727 671.521973,767.056946 676.022949,761.536987 
	C678.825073,758.100403 681.456360,754.255981 683.773804,750.232666 
	C688.087646,742.743347 684.748169,736.844727 681.885803,731.032410 
	C679.417786,726.020813 677.184204,720.486633 672.230896,716.953979 
	C669.508545,715.012451 673.991638,711.322632 669.361511,709.595154 
	C672.005310,708.688232 674.401184,708.928467 673.231873,705.942078 
	C675.830139,708.660278 679.839417,709.512817 680.664795,713.966919 
	C681.040039,715.991821 683.131592,717.445251 685.994751,715.636719 
	C679.487427,706.349426 671.360657,699.191895 662.892822,691.986084 
	C657.451355,687.355591 651.800903,682.882446 646.135864,678.618347 
	C636.096008,671.061157 625.860535,663.617859 614.300781,658.362915 
	C612.398010,657.497986 610.606018,655.915955 608.026794,657.611389 
	C609.648254,661.724609 614.996643,661.045105 616.960083,664.440918 
	C616.678589,666.212158 614.709351,664.685303 614.039368,666.435059 
	C622.749939,673.548218 633.346130,678.448486 641.860535,686.818909 
	C639.743042,688.001709 638.691589,686.772827 637.634644,685.959167 
	C615.217896,668.701050 590.038757,656.359070 564.564819,644.452454 
	C556.437134,640.653564 547.950684,637.696167 540.010376,633.515259 
	C536.823792,631.837341 534.017944,631.854980 531.531799,634.762207 
	C528.619202,638.168091 526.100769,641.839905 523.639282,645.584473 
	C518.752930,653.017761 513.012024,659.774292 506.550293,665.901855 
	C505.387268,667.004761 504.022827,666.612305 502.785767,666.137268 
	C501.095001,665.487976 499.578186,665.096008 498.456177,667.343384 
	C498.664642,668.872375 501.968353,670.030151 499.591827,672.152344 
	C496.925964,674.532959 494.682800,679.599060 491.293915,678.448120 
	C486.139984,676.697815 484.806641,680.396057 483.142548,682.684265 
	C481.696564,684.672607 480.165375,685.923401 478.217224,687.186218 
	C475.443939,688.983765 470.969666,689.463745 471.742889,694.570129 
	C471.811707,695.024536 470.304779,696.180176 469.482574,696.229797 
	C465.005249,696.500000 462.282776,700.340942 458.271454,701.515503 
	C456.881165,701.922607 456.437805,703.323242 455.890442,704.558228 
	C455.237091,706.032410 454.042938,707.171692 452.422485,706.961548 
	C447.165833,706.279968 443.541382,709.401428 440.272583,712.526978 
	C436.380493,716.248352 432.415100,718.610901 426.925446,717.055908 
	C424.681396,716.420288 422.699829,716.552979 421.077301,718.515808 
	C420.694153,718.979248 419.871552,719.442444 419.334595,719.360229 
	C413.338501,718.442505 407.831726,720.777771 402.104797,721.663452 
	C400.491852,721.912964 398.672058,721.835022 397.380524,722.682251 
	C391.679016,726.422180 384.519440,725.775085 378.697388,729.106201 
	C377.520233,729.779724 375.865051,729.837891 375.509430,727.999207 
	C375.148254,726.131653 376.729034,725.948425 378.080200,725.753418 
	C385.181396,724.728699 391.234192,721.136047 397.652222,718.437988 
	C397.518066,717.989624 397.383911,717.541199 397.249756,717.092834 
	C392.369904,718.361511 387.525543,719.798645 382.596954,720.835632 
	C379.637848,721.458191 376.361572,723.549988 373.993805,719.021118 
	C373.099304,717.310120 369.926727,717.202271 368.058258,718.573364 
	C365.182892,720.683289 361.713409,721.363464 357.560913,723.535278 
	C360.701996,723.253784 362.699951,723.074707 364.697906,722.895630 
	C361.457367,724.632324 358.749420,728.430115 354.401123,724.925964 
	C352.170837,723.128662 349.223633,724.177612 346.628204,724.466919 
	C342.333862,724.945496 338.067017,725.679077 333.795532,726.349426 
	C332.234894,726.594360 330.443451,726.260803 329.704620,728.432678 
	C329.244995,729.783997 327.210114,729.929199 326.722107,729.392944 
	C324.222443,726.646240 320.725647,727.942871 317.809113,726.896484 
	C312.443939,724.971802 306.720306,724.068176 301.289124,722.299622 
	C295.618500,720.453003 290.087067,718.160889 284.557648,715.909058 
	C282.755219,715.175049 283.689362,712.881775 282.822937,711.629333 
	C280.576385,710.908386 281.089264,713.154175 280.740356,713.439453 
	C271.300354,711.255554 268.317688,703.650635 265.037781,696.198669 
	C260.712402,686.371521 260.774658,677.516296 265.541626,673.652222 
	C262.441620,671.645752 262.450409,669.610413 265.609985,667.725891 
	C266.525177,667.179993 267.494659,666.430725 267.394653,665.485535 
	C266.836365,660.209473 270.970978,656.464417 271.746643,651.599304 
	C272.211456,648.683594 273.612549,646.214050 276.375153,644.295959 
	C279.418152,642.183228 282.531769,639.653381 282.849457,635.322144 
	C282.894562,634.707458 283.290924,634.028198 283.714264,633.544861 
	C292.565002,623.440613 298.619904,610.894775 310.946350,603.814880 
	C321.488556,597.759827 331.671967,591.032959 343.173187,586.895813 
	C355.148407,582.588318 367.907440,581.624390 380.247467,578.829102 
	C394.671478,575.561768 409.284637,573.285400 423.980438,571.476013 
	C427.851379,570.999512 430.622955,567.102539 435.150970,567.038940 
	C446.635284,566.877563 458.112183,566.203674 469.592834,565.755615 
	C472.578461,565.639038 475.549072,565.882812 477.617004,562.853943 
	C478.770844,561.163818 480.973145,561.845886 482.769196,561.708801 
	C488.842346,561.245117 494.886871,562.113525 501.041779,560.317505 
	C505.287354,559.078613 506.822937,556.391296 508.667969,553.306396 
	C511.953857,547.812378 515.616577,542.324036 518.424194,536.825684 
	C521.089966,531.604980 525.755371,527.018433 526.366760,520.705078 
	C526.426636,520.086975 526.810181,519.458374 527.168396,518.917297 
	C533.491089,509.366608 537.765625,498.722626 542.982849,488.601685 
	C550.364075,474.283203 556.601501,459.367523 563.136902,444.622467 
	C571.889832,424.874054 580.655579,405.127991 588.060547,384.812683 
	C589.403809,381.127686 588.940796,377.077179 590.772644,373.047211 
	C567.869751,381.710144 549.670593,397.687195 527.658508,409.892700 
	C533.418884,411.101715 534.879883,405.551575 539.050293,405.695618 
	C539.110229,408.855438 536.802124,409.561432 535.160767,410.645203 
	C527.675049,415.588318 519.972046,420.216919 512.640015,425.374969 
	C500.761627,433.731415 488.954987,442.209808 477.464081,451.084778 
	C474.085541,453.694183 468.874878,455.664032 467.596283,458.805756 
	C465.254608,464.559753 458.053131,464.504517 456.370331,470.436615 
	C455.858673,472.240295 452.996552,473.453247 451.097443,474.773438 
	C444.564636,479.314911 439.232452,485.268707 432.944611,490.161102 
	C428.710266,493.455719 424.301392,497.488129 421.448425,502.465271 
	C420.726318,503.725037 419.658875,504.408325 418.632507,505.192108 
	C416.116638,507.113251 413.844696,508.560516 414.685760,512.789368 
	C415.353638,516.147461 411.769836,518.489929 408.834412,519.391541 
	C402.512115,521.333435 397.229248,525.279419 389.699127,525.362183 
	C383.847687,525.426453 377.520599,527.895447 371.218292,527.300232 
	C359.143707,526.159851 347.495789,523.780701 338.250183,514.894226 
	C334.550171,511.337952 329.140442,511.045349 324.813568,508.519226 
	C316.952148,503.929626 310.046112,498.434662 303.449036,492.033447 
	C298.762756,487.486328 297.609100,481.052246 292.729248,477.061707 
	C292.256561,476.675201 291.690094,475.767792 291.842743,475.347626 
	C294.091339,469.159241 288.611877,466.790009 285.981171,462.924835 
	C282.719635,458.132904 283.530334,454.346100 288.151917,450.500275 
	C289.149445,449.670166 289.829498,448.783234 289.718445,447.576294 
	C288.771149,437.283417 296.970978,430.636658 300.103638,421.941772 
	C301.679718,417.567230 303.935760,413.154846 306.424835,408.976837 
	C308.416656,405.633484 309.662506,402.151520 312.718079,399.235657 
	C313.956818,398.053528 316.303162,395.286774 316.362946,392.388672 
	C316.375763,391.767700 316.592896,390.713898 316.948242,390.602814 
	C321.992401,389.026123 321.688690,382.981293 325.573456,380.380096 
	C326.748413,379.593384 327.439240,378.407349 328.817535,379.719879 
	C330.127594,380.967377 329.110657,381.904053 328.506256,383.162384 
	C323.884583,392.784637 317.137024,401.329071 314.028015,411.707275 
	C313.955109,411.950653 314.232361,412.298950 314.443390,412.853394 
	C318.036438,413.008057 317.333618,407.908264 321.978973,407.339752 
	C317.007874,412.940826 318.324005,419.202332 316.910187,424.894928 
	C315.852386,429.154144 315.432312,433.577637 314.282532,437.806763 
	C312.430267,444.619720 316.546051,448.900116 320.404419,453.305725 
	C321.773743,454.869202 323.618927,454.425598 325.514008,453.943054 
	C336.601776,451.119690 346.546478,445.797821 356.351288,440.132874 
	C359.661316,438.220490 362.846039,435.433777 366.407715,434.774994 
	C371.249237,433.879456 375.658813,432.616058 380.005219,430.267761 
	C382.646545,428.840607 382.637787,431.447754 382.010284,433.695923 
	C386.997986,432.528381 390.473663,429.601929 394.218475,427.278351 
	C416.225647,413.623444 438.177673,399.879639 460.162994,386.189514 
	C461.884705,385.117432 463.828186,383.636108 464.782440,386.973846 
	C467.819885,386.346130 466.568604,383.000366 468.460968,381.141296 
	C474.637451,385.860504 477.925323,375.719269 484.095886,378.032562 
	C480.141876,382.917328 473.131134,383.216949 469.864197,388.660858 
	C477.066925,385.124237 485.004883,382.640442 489.094360,374.709351 
	C490.953339,371.104126 494.947144,370.361969 498.085419,368.951721 
	C502.220459,367.093475 505.953491,364.844299 509.468262,362.101746 
	C510.280975,361.467590 511.012878,360.800690 512.120422,361.307129 
	C513.724915,362.040833 512.334167,363.367889 512.794189,364.682648 
	C517.734741,363.133514 522.024292,360.279053 526.506409,357.921936 
	C537.686035,352.042664 548.702332,345.853333 559.854370,339.920258 
	C561.788025,338.891479 563.655884,337.899902 566.349976,338.181183 
	C568.430237,338.398407 569.550598,334.810577 572.063416,333.722565 
	C577.074036,331.553192 582.157654,329.406128 586.907104,326.071960 
	C586.161072,325.055878 585.523621,324.187744 584.927002,323.375275 
	C585.764282,321.405396 587.602661,321.297485 589.035950,320.566071 
	C590.423584,319.857971 592.465088,319.691956 591.657532,317.187897 
	C591.366394,316.284943 592.040588,315.559174 592.836731,315.216125 
	C596.089050,313.814728 597.441101,311.763580 598.857117,308.090149 
	C600.328369,304.273163 605.552734,300.797394 611.257385,301.511353 
	C623.785522,303.079346 636.330261,304.529510 648.833923,306.273621 
	C659.246826,307.726105 668.760010,311.571686 676.744324,318.544128 
	C684.666992,325.462769 688.742981,334.035034 687.584167,344.860382 
	C687.135071,349.055481 686.431641,353.033508 684.523132,356.834442 
	C682.572327,360.719574 680.917786,364.630371 675.944153,365.700623 
	C674.459106,366.020172 672.916138,367.290741 671.945557,368.547241 
	C669.282898,371.994354 666.437988,374.060913 661.751221,372.480927 
	C659.873596,371.847961 658.564514,373.690277 657.314880,375.127594 
	C654.209167,378.699615 651.779419,383.257111 646.117065,383.449097 
	C645.688171,383.463654 645.103882,383.847809 644.880249,384.229279 
	C640.813049,391.165955 632.739014,394.242188 628.631775,401.156006 
	C627.317993,403.367523 625.868225,405.132721 623.090210,406.366547 
	C620.389465,407.565979 618.289246,410.921570 619.691895,414.499420 
	C612.758240,417.977539 608.993896,424.479462 607.413940,430.939819 
	C605.585388,438.416656 601.379150,443.728058 596.593323,448.812836 
	C592.423218,453.243469 590.621216,458.697052 588.023621,463.858063 
	C586.766113,466.356567 588.311096,468.734436 588.089233,471.265472 
	C587.425232,478.840973 582.011902,484.928680 581.583191,491.665680 
	C581.040466,500.196655 578.220825,507.684631 575.132263,515.019165 
	C568.805969,530.042358 564.168152,545.572937 559.454285,561.097778 
	C557.755127,566.693970 560.310364,570.770081 566.142578,572.463379 
	C576.516907,575.475342 586.752930,578.868103 596.754089,582.947754 
	C602.300354,585.210205 607.866699,587.447815 613.279968,590.001770 
	C616.019653,591.294373 619.179565,592.416199 619.838135,596.201172 
	C619.966370,596.938293 621.229858,597.537354 622.051147,598.075928 
	C622.739624,598.527344 623.515381,598.983398 624.306702,599.117432 
	C628.707825,599.862976 625.400391,605.394714 627.962280,605.835815 
	C629.996826,606.186035 632.430054,602.291504 635.211975,606.148560 
	C635.782471,607.325928 633.737793,608.355347 634.078857,610.235413 
	C646.951843,611.197388 657.843689,615.655640 665.270325,628.211914 
	C666.479980,628.444580 666.700500,625.120361 668.025391,625.153259 
	C676.368164,628.714966 682.190369,634.857910 690.295288,637.910950 
	C696.447754,640.228455 701.600342,645.489807 706.674927,650.200928 
	C710.759644,653.993042 714.792603,658.018738 718.629517,661.895813 
	C723.997681,667.320251 730.753296,671.684570 734.188354,679.375061 
	C735.781494,682.941650 738.896667,686.921265 742.441345,689.492737 
	C747.109802,692.879456 750.010681,696.971375 751.607666,702.558411 
	C752.819153,706.796692 755.507690,710.583313 756.869629,714.886292 
	C757.180420,715.868347 758.213135,716.895447 759.174622,717.351501 
	C763.744934,719.519226 767.897888,726.495972 765.813354,731.211731 
	C763.233643,737.047607 765.864990,741.669373 767.421509,746.624512 
	C768.728699,750.786011 767.718567,754.873291 763.995239,757.180481 
	C761.619629,758.652649 759.844482,760.401489 759.435425,763.324280 
	C757.792175,775.064697 751.256531,783.819275 742.363037,791.120239 
	C741.185913,792.086609 740.648682,793.526367 739.800537,794.711487 
	C737.716675,797.623047 735.595276,800.908447 731.066589,799.705505 
	C728.517029,799.028320 727.591125,800.904724 726.378235,802.523682 
	C724.062439,805.614624 722.796387,809.837097 717.710876,810.649048 
	C716.716492,806.025574 714.637878,801.718628 709.107300,802.972412 
	C704.835876,803.940735 700.899414,806.386902 695.872620,808.588318 
	C697.600098,804.998413 696.472839,802.758972 694.146667,801.115112 
	C691.616455,799.327026 689.431763,801.261353 687.113892,801.971436 
	C685.493164,802.468079 684.019714,804.322144 682.063660,802.738220 
	C679.785400,800.893433 682.075195,799.582214 682.550659,798.018921 
	C682.969604,796.641296 682.644714,795.287109 681.235535,794.603882 
	C679.896362,793.954590 678.511719,794.232727 677.663940,795.453247 
	C676.725952,796.803467 676.058472,798.341614 675.307312,799.734558 
	C675.698730,801.775085 678.416138,799.959106 678.740906,802.188049 
	C673.005981,808.476440 665.704407,814.189575 657.779236,815.351929 
	C648.742737,816.677185 641.264038,822.714600 631.613098,822.081787 
	C628.392944,821.870605 624.287476,824.909973 619.881226,825.104858 
	C620.141602,820.460571 624.453369,819.639893 626.700806,815.982544 
	C628.175415,822.741272 633.034973,814.718323 634.947510,819.482300 
	C636.550842,817.006531 638.521240,814.901794 636.569824,812.477722 
	C634.852783,810.344788 632.496582,809.998840 629.470032,810.693115 
	C624.584473,811.813904 620.057678,813.234436 616.280518,816.644897 
	C614.842468,817.943481 612.908020,817.938660 611.104919,818.213989 
	C604.544067,819.215942 597.758728,819.509888 591.506165,821.487427 
	C587.660889,822.703613 584.501404,826.169434 579.793396,825.764771 
	C578.895996,823.590149 582.758484,823.504700 581.559143,820.947571 
	C579.781616,821.704163 577.903198,822.503662 575.825439,823.388000 
	C577.962463,827.377197 574.654053,827.862000 572.224976,828.698425 
	C569.406372,829.669067 569.894592,827.475647 569.900513,825.771667 
	C567.020630,826.029053 564.745361,826.706238 564.163147,830.119080 
	C563.853760,831.932617 562.260498,832.926147 560.372009,832.399902 
	C559.275696,832.094421 558.726257,831.972656 557.944763,833.044861 
	C555.860291,835.904907 554.131226,834.830811 553.012878,832.318848 
	C548.680359,832.492554 547.923889,840.635925 542.227844,836.720947 
	C543.030579,830.076904 548.781616,828.928162 553.482971,827.147095 
	C556.297974,826.080627 559.010925,825.012756 562.072998,823.066528 
	C563.720093,822.270264 564.827637,821.816284 566.302002,821.207642 
	C570.274109,819.791748 573.865845,818.489807 577.489868,817.284729 
	C579.616272,816.577637 580.832947,815.233032 581.006836,812.991882 
	C580.998962,812.998596 580.978516,813.009949 580.978516,813.009949 
M269.121735,689.639343 
	C274.238495,693.047363 276.866821,698.758789 281.904266,702.726440 
	C280.832428,693.759766 270.736359,687.022339 274.781372,676.613647 
	C277.908264,677.563965 279.674622,679.185181 280.091339,682.221985 
	C281.693024,693.894409 288.111694,700.966309 299.593719,703.828491 
	C315.765900,707.859741 343.655792,704.582520 360.969025,697.420898 
	C368.236877,694.414490 375.291046,691.076538 382.077637,687.226562 
	C399.167145,677.531616 416.052734,667.544250 430.662750,654.117676 
	C437.748749,647.605652 444.528870,640.797241 451.265930,633.962402 
	C457.794067,627.339539 463.769684,620.152283 469.730499,612.998413 
	C472.710571,609.421875 471.938446,607.402344 467.460297,606.272278 
	C462.793060,605.094543 458.044830,604.221069 453.309845,603.332764 
	C448.249420,602.383301 442.218750,602.984802 438.307953,600.371155 
	C432.342987,596.384644 426.221436,596.203552 419.866394,596.056702 
	C389.962677,595.365417 361.867249,602.200867 335.498108,616.405884 
	C326.991241,620.988525 319.160126,626.690369 312.209229,633.050476 
	C304.699554,639.921875 298.419647,648.334717 293.304291,657.372986 
	C293.015717,657.882874 292.345062,658.176453 291.933105,658.506042 
	C290.463196,657.819092 291.126129,655.665222 288.388855,655.503235 
	C285.244965,660.662170 282.237122,666.390869 280.028076,672.452576 
	C274.095856,671.997925 270.327942,675.248474 270.114380,681.507874 
	C270.018921,684.305542 269.559235,686.321167 265.401367,687.411499 
	C267.102478,688.469360 267.813995,688.911804 269.121735,689.639343 
M282.046692,649.744568 
	C277.436707,653.895264 276.130981,660.372314 271.499756,664.584229 
	C269.833710,666.099365 270.702850,667.883301 273.198517,668.903137 
	C273.764984,666.248657 274.822479,664.257690 278.023621,664.375305 
	C279.353119,664.424133 280.143097,662.838501 280.644196,661.611938 
	C282.083221,658.089661 283.522888,654.559937 284.744202,650.959167 
	C285.531891,648.636902 284.944672,647.518372 282.046692,649.744568 
M314.205536,416.674957 
	C313.852112,414.524200 312.622772,414.528229 311.896881,416.171722 
	C310.973083,418.263123 309.942810,420.500336 310.247314,424.509949 
	C311.939972,421.195740 312.954895,419.208496 314.205536,416.674957 
z"/>
<path fill="#000000" opacity="1.000000" stroke="none" 
	d="
M441.238220,269.347565 
	C455.149597,253.687149 469.052399,238.492477 481.571106,222.117783 
	C486.022247,216.295578 485.517059,214.375900 479.655243,209.978806 
	C471.524811,203.879974 464.102783,197.128052 460.500824,187.121536 
	C459.594513,184.603760 457.230255,182.891403 455.058685,181.384262 
	C450.440704,178.179306 448.107849,173.521530 446.418182,168.454895 
	C444.978851,164.138779 446.089569,162.823822 450.720459,162.679550 
	C454.871948,162.550247 458.506348,164.382629 462.171509,165.812897 
	C478.051697,172.009933 494.692932,173.811584 511.462555,173.656830 
	C524.783875,173.533905 537.042725,176.618027 548.883057,182.220688 
	C550.115295,182.803757 551.124817,183.701218 551.297668,185.189407 
	C551.488831,186.836151 552.406860,188.185898 553.820129,188.677078 
	C559.495789,190.649521 561.590576,195.729599 564.169006,200.346634 
	C564.947449,201.740524 565.844116,202.751282 567.198181,203.487579 
	C572.269653,206.245361 576.290833,214.352036 575.217590,219.921906 
	C574.943420,221.344818 574.502625,223.308701 573.478821,223.920944 
	C566.903748,227.852570 566.917053,234.384293 566.393616,240.743835 
	C566.237122,242.645248 565.442505,244.233429 564.403992,245.782700 
	C561.324707,250.376694 558.530396,255.185898 555.152710,259.545227 
	C553.523865,261.647369 551.016785,263.929657 548.588989,264.368347 
	C543.903381,265.215088 540.090820,267.977173 535.370605,269.022095 
	C527.879395,270.680420 519.480530,269.953278 513.958252,275.692993 
	C511.373322,274.424622 513.234192,272.485321 511.266327,271.483826 
	C501.424011,274.011292 493.261780,282.695862 481.539001,281.344147 
	C481.006012,279.287598 484.026886,278.225281 483.760040,275.176758 
	C478.129913,276.660461 472.455841,274.395630 466.669525,278.392639 
	C461.406555,282.028168 455.899963,285.869263 449.374390,287.612091 
	C446.763428,288.309418 443.831512,289.669128 442.835083,292.568604 
	C441.945221,295.158081 440.194153,297.247131 438.140594,298.141815 
	C432.001984,300.816284 428.823029,306.307770 424.671600,310.900848 
	C424.028839,311.611969 423.419037,312.522705 422.161987,312.339783 
	C420.791809,311.150482 421.971100,310.206238 422.660583,309.487396 
	C426.423950,305.563934 427.929260,300.297119 430.845093,295.855164 
	C433.016571,292.547119 431.190338,289.906036 427.205750,288.516876 
	C430.591217,281.061615 437.523804,276.563538 441.238220,269.347565 
z"/>
<path fill="#000000" opacity="1.000000" stroke="none" 
	d="
M565.935242,821.362244 
	C564.827637,821.816284 563.720093,822.270264 562.339844,822.843628 
	C556.779419,820.821777 552.503601,824.546265 548.678223,826.500916 
	C537.397095,832.265259 525.736084,837.412964 515.192688,844.625427 
	C511.808624,846.940430 508.700531,850.144226 503.721344,850.866882 
	C505.024231,847.582153 507.865723,846.887268 509.895813,845.489197 
	C521.632446,837.406311 533.683533,829.740417 546.616333,823.750061 
	C558.024048,818.466064 569.870239,814.137024 581.166748,808.558228 
	C582.860413,807.721802 584.062622,809.263245 585.604004,810.307556 
	C583.996033,811.178650 582.720032,811.869934 581.211304,812.785583 
	C580.978516,813.009949 580.998962,812.998596 580.698547,813.079712 
	C575.342041,815.480042 570.219604,817.682190 565.935242,821.362244 
z"/>
<path fill="#000000" opacity="1.000000" stroke="none" 
	d="
M353.556885,730.986633 
	C355.038147,731.963318 355.724457,732.992676 355.229980,734.917053 
	C348.369568,736.092896 341.433289,736.718872 334.281738,735.702026 
	C340.705780,734.395386 347.024536,732.930481 353.556885,730.986633 
z"/>
<path fill="#000000" opacity="1.000000" stroke="none" 
	d="
M601.609131,826.021484 
	C603.938171,824.447205 605.998474,823.172974 608.793945,825.169617 
	C610.292603,826.240112 612.438965,825.440491 613.188171,823.388672 
	C613.899841,821.439697 614.919373,820.722656 616.882385,821.555603 
	C615.567810,826.271118 607.784363,830.500671 603.166199,829.101624 
	C601.699402,828.657288 602.073303,827.241760 601.609131,826.021484 
z"/>
<path fill="#000000" opacity="1.000000" stroke="none" 
	d="
M660.080688,703.953308 
	C658.836121,702.699097 657.249817,702.128662 657.146851,700.059265 
	C661.334656,699.269348 662.644958,706.636414 667.201904,703.335815 
	C668.772217,705.874756 665.311340,706.987183 666.975464,709.319641 
	C663.393860,708.487061 662.573242,705.476868 660.080688,703.953308 
z"/>
<path fill="#000000" opacity="1.000000" stroke="none" 
	d="
M651.005005,691.994568 
	C651.822388,691.252502 652.651672,689.784790 653.824219,690.703796 
	C656.272034,692.622131 658.462158,694.869202 660.438965,697.472412 
	C656.612000,697.281372 654.064087,694.711731 651.135010,692.314087 
	C651.000000,692.000000 651.005005,691.994568 651.005005,691.994568 
z"/>
<path fill="#000000" opacity="1.000000" stroke="none" 
	d="
M533.457886,841.519531 
	C533.167358,836.444641 534.609314,835.046509 540.026184,835.132690 
	C536.489746,836.078125 537.979187,841.535156 533.457886,841.519531 
z"/>
<path fill="#000000" opacity="1.000000" stroke="none" 
	d="
M650.997925,692.001343 
	C647.784485,690.247742 650.121277,693.583862 648.906311,694.101196 
	C647.506470,693.040649 645.986206,691.888855 644.497070,690.760620 
	C646.978882,686.426575 647.697510,686.518433 650.989624,691.648438 
	C651.005005,691.994568 651.000000,692.000000 650.997925,692.001343 
z"/>
</svg>